<svg width="24" height="24" viewBox="0 0 24 24" fill="none" xmlns="http://www.w3.org/2000/svg">
<g clip-path="url(#clip0_22_116)">
<path fill-rule="evenodd" clip-rule="evenodd" d="M3.86827 8.11097L9.87868 2.10056C12.4357 -0.456443 16.2524 -0.0109886 18.364 2.10056C20.4755 4.21212 20.9209 8.02882 18.364 10.5858L12.3535 16.5962C10.8572 18.0926 8.63148 17.8239 7.40381 16.5962C6.17614 15.3686 5.90746 13.1428 7.40381 11.6465L11.2929 7.75741C11.6834 7.36689 12.3166 7.36689 12.7071 7.75741C13.0976 8.14794 13.0976 8.7811 12.7071 9.17163L8.81802 13.0607C8.19304 13.6857 8.27792 14.6419 8.81802 15.182C9.35811 15.7221 10.3143 15.807 10.9393 15.182L16.9497 9.17164C18.6354 7.48597 18.3737 4.93875 16.9497 3.51477C15.5258 2.09079 12.9785 1.82914 11.2929 3.51477L5.28249 9.52518C2.52167 12.286 2.81322 16.2483 5.28249 18.7176C7.75175 21.1868 11.7141 21.4784 14.4749 18.7176L18.364 14.8285C18.7545 14.438 19.3876 14.438 19.7782 14.8285C20.1687 15.219 20.1687 15.8522 19.7782 16.2427L15.8891 20.1318C12.2859 23.7349 7.05586 23.3194 3.86827 20.1318C0.68068 16.9442 0.265128 11.7141 3.86827 8.11097Z" fill="black"/>
</g>
<defs>
<clipPath id="clip0_22_116">
<rect width="24" height="24" fill="white"/>
</clipPath>
</defs>
</svg>
